<svg fill="none" height="762" viewBox="0 0 622 762" width="622" xmlns="http://www.w3.org/2000/svg" xmlns:xlink="http://www.w3.org/1999/xlink"><filter id="a" color-interpolation-filters="sRGB" filterUnits="userSpaceOnUse" height="722.855" width="648.496" x="122.133" y="45.084"><feFlood flood-opacity="0" result="BackgroundImageFix"/><feBlend in="SourceGraphic" in2="BackgroundImageFix" mode="normal" result="shape"/><feGaussianBlur result="effect1_foregroundBlur_1942_6237" stdDeviation="50"/></filter><linearGradient id="b"><stop offset="0" stop-color="#73d2ff"/><stop offset="1" stop-color="#b6edff"/></linearGradient><linearGradient id="c" gradientUnits="userSpaceOnUse" x1="461.001" x2="160.501" xlink:href="#b" y1="120.509" y2="640.991"/><linearGradient id="d" gradientUnits="userSpaceOnUse" x1="609.048" x2="308.548" xlink:href="#b" y1="159.143" y2="679.624"/><mask id="e" height="524" maskUnits="userSpaceOnUse" width="449" x="74" y="106"><path clip-rule="evenodd" d="m443.667 111.373c68.036 29.532 103.501 122.142 59.498 244.39-44.31 123.103-146.287 213.23-238.193 252.06-91.678 38.734-181.9691 30.734-190.4108-70.976-7.7856-93.806 81.3248-207.29 159.8068-297.757 70.412-81.165 152.75-152.2621 209.299-127.717z" fill="url(#c)" fill-rule="evenodd" opacity=".75"/></mask><g mask="url(#e)"><g filter="url(#a)" opacity=".75"><path clip-rule="evenodd" d="m591.714 150.007c68.036 29.531 103.501 122.142 59.498 244.39-44.31 123.103-146.287 213.23-238.193 252.06-91.678 38.733-181.969 30.733-190.411-70.977-7.786-93.805 81.325-207.29 159.807-297.756 70.412-81.165 152.75-152.263 209.299-127.717z" fill="url(#d)" fill-rule="evenodd"/></g></g></svg>