<svg fill="none" height="48" viewBox="0 0 49 48" width="49" xmlns="http://www.w3.org/2000/svg"><path d="m37.8263 6.37499c.7106.60369 1.1517 1.45375 1.2399 2.38056.0737.96865-.1639 1.90195-.7766 2.67135-.5768.6702-1.3216 1.1095-2.2012 1.2398-.0741.0007-.1481.0008-.2222 0 .0001.0379.0002.0758.0004.1148.0029.9245.0051 1.849.0065 2.7735.0007.4471.0016.8942.0031 1.3413.0014.3899.0022.7798.0025 1.1697.0002.2063.0006.4125.0016.6187.0009.1946.0012.3892.001.5838 0 .071.0003.1419.0008.2129.0063.9105-.1868 1.7148-.8201 2.3965-.6324.6039-1.4419.7263-2.2802.7212-.4437-.0113-.8844-.0584-1.2788-.2774-.1174-.0659-.1174-.0659-.216-.0363-.1273.102-.2286.2227-.3319.3479-.0478.0568-.0955.1136-.1433.1703-.0242.0291-.0484.0581-.0734.088-.111.1324-.2235.2635-.3361.3945-.0219.0255-.0437.051-.0662.0773-.1875.2188-.3763.4364-.5651.654-.2288.2638-.4561.5289-.6831.7942-.0669.0781-.1339.1562-.2009.2342-.0338.0395-.0338.0395-.0684.0797-.0415.0484-.0831.0968-.1247.1453-.0412.0479-.0814.0968-.1208.1462-.0847.0941-.0847.0941-.2038.1866-.3148.2821-.3997.5293-.4246.9503-.0093.2894-.0076.5785-.0037.868.0018.1753.0008.3506.0002.526-.0009.3312.0008.6623.0033.9935.0028.3773.0028.7547.0026 1.1321-.0004.7755.0026 1.551.008 2.3265-.1639.0104-.3276.0167-.4917.0222-.0461.003-.0923.006-.1398.009-.3385.0086-.3385.0086-.4888-.1061-.0793-.09-.1468-.1808-.2131-.2807-.0425-.0558-.0852-.1114-.1283-.1668-.0416-.0563-.0831-.1128-.1244-.1693-.1778-.24-.3593-.4761-.5473-.7083-.2062-.2551-.4044-.5153-.6-.7787-.1514-.2031-.3073-.402-.4666-.5991-.206-.2548-.404-.5146-.5992-.7777-.1797-.241-.3659-.4762-.556-.7091-.0208-.0255-.0415-.0511-.0629-.0774-.018-.022-.036-.044-.0546-.0667-.0846-.1119-.1606-.2301-.2384-.3469-.0147 4.8254-.0294 9.6507-.0445 14.6223-.4106 0-.8213 0-1.2444 0 0-5.5294 0-11.0587 0-16.7556 1.2 0 1.2 0 1.4583.2389.055.0834.055.0834.0898.1594.1092.2144.2571.3926.4074.5795.0539.0689.1076.1378.1611.2069.0385.0495.0385.0495.0778.1.134.1727.2669.3461.4.5195.1419.1844.2849.3678.4278.5514.2138.2746.4267.5498.6385.826.0896.1164.1798.2322.2702.3479.027.0346.0541.0693.0819.105.0524.067.1048.1339.1573.2008.1426.1826.2813.3675.4174.5551.0316.0436.0632.0871.0957.132.0239.0329.0477.0659.0723.0998-.0003-.0575-.0006-.1149-.001-.1741-.0028-.5428-.0036-1.0855-.0023-1.6282.0006-.279.0005-.558-.0014-.837-.0017-.2695-.0015-.5389 0-.8083.0003-.1026-.0002-.2052-.0013-.3078-.0096-.905-.0096-.905.2417-1.1856.0688-.0577.1383-.1144.2088-.1701.0646-.0754.1278-.1522.1889-.2305.1602-.1979.3246-.3914.4916-.5834.0245-.0281.049-.0563.0743-.0853.0497-.0572.0994-.1143.1492-.1715.272-.313.5431-.6266.8043-.9487.1821-.2243.3706-.4423.5602-.6602.1646-.189.3279-.379.4898-.5704.0196-.0231.0392-.0462.0594-.07.0536-.0635.1068-.1273.1601-.1911.0348-.0378.0696-.0756.1055-.1146.0832-.1002.0832-.1002.0651-.2094-.0132-.0342-.0265-.0685-.0401-.1038-.0137-.0385-.0274-.077-.0415-.1166-.0147-.0404-.0294-.0807-.0446-.1223-.025-.083-.0491-.1664-.0722-.25-.0107-.0372-.0213-.0744-.0323-.1128-.0706-.3085-.0796-.611-.0783-.9259 0-.0429 0-.0859 0-.1302 0-.1409.0003-.2818.0007-.4227.0001-.0982.0001-.1963.0002-.2945.0001-.2574.0006-.5149.0011-.7724.0004-.2631.0006-.5261.0009-.7892.0004-.5156.0012-1.0311.0021-1.5467h1.2445c.0009.1897.0009.1897.0019.3832.0023.4194.0052.8387.0085 1.2581.002.254.0038.5081.005.7622.0011.2455.0029.4911.0052.7366.0007.0933.0012.1867.0015.28-.0007 1.0225-.0007 1.0225.4556 1.9148.3852.3657.8553.4581 1.3705.4522.4395-.0271.8026-.1766 1.1184-.4854.3833-.4542.393-1.0443.391-1.6083.0004-.0736.0008-.1473.0014-.2209.0012-.1981.0013-.3963.0013-.5944.0001-.2077.0013-.4154.0023-.6232.0018-.3925.0027-.785.0033-1.1776.0007-.4472.0024-.8945.0042-1.3417.0037-.9193.0061-1.8386.0076-2.7578-.0882-.0103-.1765-.0205-.2648-.0308-.6468-.0975-1.3172-.6295-1.7105-1.1296-.6299-.8665-.8614-1.84358-.721-2.90717.0382-.2051.0963-.40136.163-.59913.0193-.06101.0193-.06101.0389-.12326.293-.82935.9789-1.49128 1.7583-1.8684 1.2971-.54884 2.8168-.42769 3.9407.45555zm-4.0789 1.14063c-.4546.566-.6007 1.24058-.5479 1.95104.08.62464.374 1.18374.8521 1.59394.5653.4314 1.1686.522 1.859.4505.5015-.0873.9055-.3333 1.2445-.7111.0357-.0376.0715-.0752.1083-.1139.4237-.528.5661-1.20705.4946-1.86944-.0782-.46591-.2375-.83473-.514-1.21667-.0509-.0715-.0509-.0715-.1028-.14444-.4455-.45587-1.0195-.70205-1.6528-.71389-.6927-.00143-1.2654.27592-1.741.77396z" fill="#00a9e0"/><g fill="#11273c"><path d="m13.6448 15.6444c.4652-.0031.9304-.0054 1.3956-.0069.2161-.0007.4321-.0016.6482-.0031.2089-.0015.4179-.0023.6268-.0026.0793-.0003.1586-.0007.2378-.0015.8383-.0073 1.5663.1052 2.1973.7131.4183.4483.5216 1.0007.5153 1.5979-.0214.6134-.2713 1.1039-.7104 1.5285-.2308.179-.5701.3969-.8661.3969.2733.4061.5475.8106.8444 1.2.2014.2647.3947.5343.5833.8083.0248.0357.0495.0713.075.1081.0231.0337.0461.0674.0698.1021.0204.0297.0407.0594.0617.09.0604.1011.1025.2034.1435.3137-1.239.1401-1.239.1401-1.5886-.0751-.1977-.1999-.3193-.4421-.4397-.6939-.0928-.1838-.2127-.3443-.3355-.5088-.159-.213-.2888-.4121-.3833-.6617-.0835-.153-.0835-.153-.364-.4161-.484-.0146-.968-.0293-1.4666-.0444.0146 1.892.0293 3.784.0444 5.7333.242-.11.242-.11.4889-.2222.1453-.0493.1453-.0493.2583-.0778.0379-.0098.0758-.0197.1148-.0299 1.018-.2258 2.026-.0662 2.9158.4632.1261.0818.2413.1693.3555.2667.0251.0188.0502.0376.0761.057.5984.4657.9885 1.2741 1.1107 2.0122.1267 1.0408-.0453 2.0463-.6979 2.8864-.0583.0674-.1175.1342-.1777.2-.0263.0303-.0525.0606-.0796.0918-.5618.6108-1.4025.9689-2.223 1.0283-.1262.0044-.2518.0056-.378.0049-.0447-.0003-.0894-.0005-.1354-.0008-.7686-.0125-1.5155-.2335-2.1174-.7242-.0553-.0446-.0553-.0446-.1118-.09-.7217-.6132-1.1081-1.4232-1.2215-2.3545-.0356-.6784-.0057-1.5294.4247-2.09.0953-.1962.083-.3788.0819-.5942.0003-.0471.0006-.0941.0009-.1425.0008-.1578.0007-.3156.0006-.4733.0004-.113.0009-.226.0014-.339.0009-.2435.0015-.4869.0017-.7303.0003-.3519.0013-.7038.0025-1.0558.0019-.571.0033-1.142.0042-1.713.001-.5546.0022-1.1092.0038-1.6639.0001-.0342.0001-.0684.0003-.1036.0004-.1715.0009-.3431.0014-.5146.0042-1.4229.0074-2.8458.0099-4.2687zm1.2445 1.1111v2.2667c.4482.0028.4482.0028.9055.0056.0934.0008.1868.0016.2831.0024.0754.0003.1509.0005.2263.0007.038.0004.0761.0009.1152.0014.4652.0001.9051-.0711 1.2615-.3879.0321-.0366.0642-.0733.0973-.1111.0247-.0275.0495-.055.075-.0833.1587-.257.1907-.5583.1281-.8502-.0914-.2881-.2678-.5355-.5351-.6823-.3506-.1462-.6796-.1684-1.0552-.1663-.0382 0-.0763.0001-.1157.0001-.1416.0003-.2833.0009-.4249.0015-.4758.0013-.4758.0013-.9611.0027zm.1333 10.5334c-.0213.0216-.0426.0433-.0646.0656-.399.4252-.5513 1.0239-.5771 1.5955.0232.6828.2846 1.2996.7542 1.7927.468.434 1.0371.6201 1.6695.6116.6462-.0289 1.1852-.3193 1.6256-.7812.4349-.5407.6071-1.2222.548-1.9064-.1002-.7018-.4213-1.2549-.9695-1.7028-.929-.658-2.2287-.5166-2.9861.325z"/><path d="m24.5782 5.73334c4.3718 0 4.3718 0 5.0995.69114.462.50029.5305 1.06807.5132 1.7224-.0229.4856-.2308.98254-.5905 1.31979-.2716.21764-.6154.48889-.9778.48889.1742.28934.3624.56204.5667.83054.2037.2679.3986.5402.5876.8187.1588.2339.3226.4637.4904.6912.1331.1832.1331.1832.1331.2818-1.2397.1254-1.2397.1254-1.5828-.0642-.185-.1738-.2923-.3914-.401-.6179-.1056-.2054-.2443-.3873-.3801-.5735-.3219-.4416-.3219-.4416-.4189-.7076-.0728-.1318-.0728-.1318-.3283-.3479-.484-.0147-.968-.0294-1.4667-.0445v5.5111c.132.044.264.088.4.1334.7831.3767 1.3911 1.0548 1.6889 1.8666.1059.3186.208.6407.2222.9778.0023.0477.0046.0955.007.1446.0253 1.0098-.2883 1.9671-.9866 2.7118-.6483.6558-1.5188 1.0137-2.4383 1.0272-.9672-.0018-1.8457-.1902-2.5821-.8614-.0363-.0323-.0727-.0646-.1102-.0979-.6407-.601-1.0207-1.4384-1.058-2.3149-.0262-1.0856.2582-2.0096 1.0144-2.8149.5051-.4875 1.113-.8028 1.7983-.95.0431-.0101.0862-.0202.1305-.0306.2221-.0227.4463-.0139.6695-.0139 0-3.2267 0-6.45332 0-9.77776zm1.2444 1.11111v2.26667c.4772.0055.4772.0055.9639.01111.0992.00161.1983.00323.3005.0049.5454.00522 1.0597.00805 1.5162-.33268.2262-.22385.3362-.50294.35-.81945-.0192-.3402-.1164-.60913-.3708-.84149-.3791-.2723-.8079-.29591-1.258-.2934-.0382.00004-.0764.00009-.1157.00013-.1417.00024-.2833.00086-.425.00143-.4757.00138-.4757.00138-.9611.00278zm-2.9333 10.48885c-.5139.6338-.6788 1.2875-.6222 2.0889.0735.5662.3623 1.1464.814 1.5037.4649.3371.8912.5143 1.4693.5102.0373-.0002.0745-.0005.1129-.0007.2725-.0054.5091-.0322.7593-.1465.0395-.0174.0789-.0347.1195-.0526.531-.2603.9173-.6916 1.1345-1.2391.2319-.6865.208-1.3591-.0687-2.0295-.3257-.6392-.8198-1.025-1.4964-1.2566-.7941-.204-1.6421.055-2.2222.6222z"/><path d="m9.55531 5.73334h5.06669v1.11111c-1.276 0-2.552 0-3.8667 0v1.73333h3.4222v1.11111c-1.1293 0-2.2586 0-3.4222 0v1.77781h3.9111c0 1.1555 0 1.1555-.175 1.4194-.0742.0612-.1492.1214-.225.1806-.0686.0798-.1352.1614-.2.2444-.1604.1984-.3282.3879-.5.5764-.1035.1164-.202.2358-.3.3569-.1604.1984-.3282.3879-.5.5764-.1035.1165-.202.2359-.3.357-.1604.1983-.3282.3879-.5.5764-.1035.1164-.202.2358-.3.3569-.1601.198-.3274.3872-.4991.5752-.1429.1611-.2766.3293-.4101.4983-.0835.0959-.1638.1663-.2686.2376-.0226-.0193-.0453-.0387-.0687-.0587-.60512-.4956-1.28155-.7198-2.06459-.6524-.56164.0994-1.07039.3677-1.41111.8333-.43166.6601-.55543 1.3663-.42656 2.141.15443.5965.45722 1.0939.97378 1.434.61661.3464 1.29596.3948 1.97223.2278.23713-.0707.45471-.1592.67155-.2783.0868-.0467.0868-.0467.2201-.0911 0-.4107 0-.8214 0-1.2445-.57199 0-1.14399 0-1.73332 0 0-.3666 0-.7333 0-1.1111h2.93332c.011.4758.022.9515.0333 1.4417.0073.2242.0073.2242.0148.453.0015.1193.0029.2386.004.3579.0014.0305.0028.061.0042.0925.0218.5025.0218.5025-.1721.7155-.1305.1059-.2709.1907-.4175.2728-.0342.0205-.0683.041-.1035.0622-.0788.0465-.1584.0872-.241.1266-.0293.0144-.0587.0288-.0889.0435-.9324.4409-2.10261.5786-3.097.2739-.88661-.3457-1.60232-.8761-2.03084-1.7511-.38568-.8803-.46073-1.9805-.12767-2.8885.17625-.437.41106-.836.71111-1.2.02246-.0275.04492-.055.06806-.0833.56644-.6243 1.43587-.9785 2.26334-1.0353.47095-.0211.91759.0052 1.3778.1073.05197.0111.10393.0222.15747.0335.0293.0082.0586.0164.08879.0249.10404.027.10404.027.26674.0196.1196-.0808.1993-.1859.2861-.3.0374-.0461.0374-.0461.0756-.0932.073-.0904.1446-.1818.2161-.2735.0665-.0816.1331-.1631.2-.2444.0312-.0385.0623-.077.0944-.1167.1289-.156.2615-.3086.3945-.4611.1994-.2287.3942-.4601.5851-.696.1503-.1827.3049-.3617.46-.5404.0958-.1108.1846-.2193.266-.3414-1.0853-.0146-2.1707-.0293-3.28889-.0444 0-2.2587 0-4.51735 0-6.84446z"/><path d="m36.5776 25.5111h1.2444c.0004.1303.0008.2605.0013.3947.0015.4322.0039.8643.0069 1.2964.0017.2618.0032.5236.0039.7854.0006.2531.0022.5061.0043.7591.0006.0961.001.1923.001.2885-.005.9795-.005.9795.4715 1.8092.3832.3748.813.457 1.3321.4513.4483-.0226.8232-.1695 1.133-.499.3326-.4172.385-.9266.3885-1.4418.0004-.0413.0008-.0825.0013-.125.0014-.1353.0025-.2707.0036-.4061.0009-.0942.0019-.1885.0028-.2827.0025-.2473.0047-.4946.0068-.7419.0022-.2527.0047-.5053.0072-.758.0047-.4952.0092-.9904.0136-1.4856h1.2444c.002.5332.0037 1.0664.0046 1.5996.0005.2476.0011.4953.0021.7429.001.2395.0015.4789.0018.7184.0001.0909.0004.1818.0009.2726.0054 1.0562-.059 2.0626-.8177 2.8776-.2968.2798-.6188.4716-1.0134.5733-.4471.116-.6572.3219-.9338.6822-.0684.0835-.1369.1668-.2056.25-.0322.04-.0644.08-.0975.1212-.0959.1165-.1953.2284-.2969.3399-.1376.151-.269.305-.3972.4639-.1376.1701-.2796.3336-.4278.4945-.2029.2203-.3913.4496-.575.6861.0476.0174.0953.0348.1444.0528.0704.0267.1408.0536.2111.0805.0408.0151.0816.0303.1236.0458.4159.162.7668.3964 1.1209.6653-.07.159-.167.2807-.2778.4139-.0355.0427-.0709.0855-.1075.1295-.1224.1457-.2456.2906-.3703.4344-.1426-.067-.2693-.1484-.4-.2361-.6454-.4144-1.3523-.5444-2.1083-.4018-.1197.0408-.2252.0885-.3361.149-.0408.0211-.0816.0422-.1236.0639-.5366.3066-.8509.7826-1.0304 1.3639-.1813.6949-.109 1.435.2415 2.0698.3574.538.823.8378 1.4458.9913.6077.112 1.2253.0025 1.7778-.2667.0486-.0186.0973-.0373.1474-.0566.2042-.2074.1586-.4759.1581-.7545.0019-.2016.0037-.4033.0056-.6111-.572 0-1.144 0-1.7333 0 0-.352 0-.704 0-1.0667h2.9333c.0192.7123.0192.7123.0389 1.4389.0057.1491.0113.2982.0172.4518.0222.9938.0222.9938-.1843 1.2284-.1506.1256-.3108.1917-.494.2587-.0675.0374-.1347.0756-.2011.1149-.0566.0274-.1137.0539-.1711.0796-.0311.0142-.0622.0285-.0942.0432-1.0095.4452-2.222.4839-3.2531.0901-.8036-.3301-1.4404-.9556-1.784-1.7531-.3976-.9845-.3913-2.0674.0122-3.0511.4039-.8526 1.0604-1.5025 1.9524-1.8291.152-.051.3006-.0959.4569-.1318.1726-.0599.2247-.1146.332-.2599.0337-.0438.0674-.0877.1021-.1328.0182-.0238.0363-.0476.0551-.0722.1092-.1388.2264-.2706.3428-.4033.2023-.2322.4027-.4657.6011-.7012.1504-.1783.3023-.3554.4544-.5322.1984-.2306.3926-.464.5837-.7007.0774-.0937.0774-.0937.1663-.1826-.0483-.02-.0967-.04-.1465-.0606-.7083-.3048-1.1752-.6954-1.4979-1.4061-.1631-.4345-.229-.8336-.2273-1.2949 0-.0447 0-.0894 0-.1354 0-.1472.0004-.2944.0007-.4415.0001-.1023.0002-.2046.0002-.3068.0002-.2687.0006-.5375.0011-.8062.0005-.2744.0007-.5488.0009-.8232.0005-.538.0013-1.0761.0022-1.6142z"/><path d="m11.4093 26.1392c.0335.0274.0671.0548.1016.083.0294.0237.0588.0475.0891.0719.0599.0492.1189.0996.1776.1504-.0701.159-.167.2806-.2778.4138-.0355.0428-.0709.0855-.1075.1296-.1225.1456-.2457.2905-.3703.4343-.1471-.0654-.2539-.1502-.375-.2555-.5871-.4777-1.24549-.6062-1.98055-.5445-.48116.0892-.95295.3535-1.26111.7372-.44507.6612-.61145 1.3666-.46667 2.1517.15015.6312.48886 1.1555 1.04636 1.5002.55559.2969 1.17444.3814 1.7842.2054.48677-.1723.86497-.4347 1.25277-.7722.3045.2547.5918.503.8.8444-.4968.5128-.4968.5128-.76.6492-.1448.0968-.1448.0968-.1624.2705-.0014.0677-.0014.1354-.0002.2031-.0004.0374-.0009.0747-.0013.1132-.001.1254-.0002.2507.0007.3761-.0004.0898-.0009.1796-.0015.2694-.0012.244-.0009.4879-.0002.7319.0004.2549-.0007.5097-.0016.7646-.0015.4828-.0017.9655-.0014 1.4483.0003.5495-.0009 1.0991-.0023 1.6487-.0027 1.1305-.0033 2.2611-.0031 3.3917h3.6v1.1555c-1.5987 0-3.1974 0-4.84447 0 0-3.2413 0-6.4826 0-9.8222-.396 0-.792 0-1.2 0-.88814-.1627-1.66988-.6108-2.22222-1.3333-.60095-.8997-.82025-1.9297-.61667-2.9973.23505-.9119.71705-1.703 1.525-2.2194 1.31926-.7599 3.05316-.75 4.27896.2003z"/><path d="m25.1553 35.4222c1.1555 0 1.1555 0 1.4444.275.0645.0931.0645.0931.1047.1734.0882.1645.1923.3056.3092.4516.0367.0477.0734.0954.1099.1432.1395.1816.2801.3623.4207.5429.0393.0505.0393.0505.0794.1021.0809.1039.1618.2079.2428.3118.3175.4078.6347.8158.9495 1.2257.245.3185.4925.635.7394.9521.1026.132.2053.264.3111.4.0147-1.5107.0293-3.0213.0444-4.5778h1.2v6.8445c-1.0666 0-1.0666 0-1.3389-.2612-.0629-.0903-.0629-.0903-.1057-.1717-.1213-.2143-.2712-.4003-.4248-.5921-.0534-.0685-.1067-.1371-.1599-.2058-.0254-.0327-.0508-.0654-.0769-.0991-.1339-.1728-.2669-.3463-.4-.5196-.2179-.2833-.438-.565-.6576-.847-.1563-.2007-.3124-.4015-.4686-.6024-.1344-.1729-.269-.3457-.4039-.5183-.0278-.0358-.0557-.0715-.0844-.1083-.053-.0678-.106-.1357-.159-.2035-.0242-.0309-.0483-.0619-.0732-.0938-.021-.0268-.0419-.0536-.0635-.0812-.1009-.1337-.1973-.2708-.2947-.4072-.0146 1.5547-.0293 3.1094-.0444 4.7112-.396 0-.792 0-1.2 0 0-2.2587 0-4.5174 0-6.8445z"/><path d="m16.5337 5.73334h1.2444c.0007.1278.0013.2556.002.38728.0022.4238.0052.84759.0085 1.27138.002.25677.0037.51354.0049.77031.0012.24812.003.49624.0052.74435.0007.09433.0013.18867.0015.283.003 1.00514.003 1.00514.4668 1.87704.3464.3097.7596.4254 1.2167.4194.0369-.0004.0738-.0008.1118-.0012.4535-.0128.7881-.132 1.1186-.4507.3413-.399.4103-.8828.4115-1.39054.0005-.04254.0009-.08509.0014-.12891.0013-.13924.0021-.27846.0029-.4177.0008-.09708.0017-.19416.0026-.29124.0022-.25448.004-.50897.0057-.76345.0017-.2601.004-.5202.0062-.78029.0043-.50957.008-1.01915.0115-1.52873h1.2444c.0031.56217.0055 1.12434.0069 1.68652.0007.2611.0017.5222.0032.7833.0015.25244.0022.50488.0026.75732.0002.09584.0007.19168.0014.28751.0072.98471-.0813 1.89551-.7696 2.66311-.6467.6381-1.4524.7783-2.3226.7743-.8258-.018-1.5395-.2558-2.1219-.8632-.6819-.7431-.6867-1.7019-.6796-2.64702.0002-.09969.0004-.19938.0005-.29907.0005-.26018.0018-.52036.0033-.78054.0014-.26637.002-.53275.0027-.79913.0014-.52104.0037-1.04207.0065-1.5631z"/><path d="m38.0449 15.6444c4.0215 0 4.0215 0 4.7472.6955.487.5235.6092 1.1067.5985 1.7988-.0227.5826-.2865 1.1139-.7094 1.5111-.3638.2951-.7626.4597-1.2141.5724-.03.0079-.0601.0158-.0911.024-.1935.0302-.385.0259-.5806.0248-.0382 0-.0764-.0001-.1158-.0001-.1421-.0003-.2842-.0009-.4263-.0015-.3181-.0009-.6362-.0018-.9639-.0027v2.2222c-.4107 0-.8214 0-1.2445 0 0-2.2587 0-4.5173 0-6.8445zm1.2445 1.1112v2.4c.4152.0041.4152.0041.8389.0083.0864.0012.1728.0024.2619.0037.5496.0045 1.0137-.0147 1.4325-.412.2112-.229.3088-.4734.3125-.7855-.0207-.375-.1149-.636-.3903-.8951-.3437-.281-.7286-.3266-1.1578-.3238-.033.0001-.0659.0001-.0999.0001-.1224.0003-.2449.0009-.3673.0015-.2741.0009-.5481.0018-.8305.0028z"/><path d="m34.6516 26.0861c.0953.0734.189.148.2813.225-.1987.3177-.4046.6284-.6222.9333-.1742-.0283-.2933-.1145-.4389-.2111-.5379-.3444-1.1743-.5503-1.8155-.4335-.2681.0716-.4885.1699-.6404.4146-.0934.2342-.0704.5012.017.7328.4046.3954 1.0166.4961 1.5476.6285.6833.1719 1.5139.4093 1.9007 1.0479.274.53.32 1.112.16 1.6903-.0943.2633-.227.4624-.4194.6639-.026.0278-.052.0555-.0788.0842-.5118.4956-1.2314.6273-1.9184.6436-1.0777-.0243-2.0081-.4166-2.8473-1.0834.0704-.1603.1688-.2825.2806-.4166.0355-.0428.071-.0856.1076-.1297.0333-.0397.0665-.0794.1007-.1203.0375-.0452.0375-.0452.0757-.0912.0487-.0586.0976-.1171.1466-.1755.1455.0649.271.1521.4011.2435.3248.2265.64.3947 1.0211.512.0334.0109.0669.0217.1014.0329.4417.1211.9927.1251 1.4097-.0773.1574-.1022.2757-.2098.375-.3694.0501-.2396.0623-.4386-.0417-.6639-.3796-.4176-.9692-.5244-1.4954-.6637-1.5567-.4125-1.5567-.4125-1.9837-1.0778-.1505-.3168-.2112-.6028-.207-.953.0005-.0584.0005-.0584.001-.1181.0077-.3011.0515-.553.1962-.8208.0184-.0348.0367-.0696.0556-.1055.2554-.4296.675-.717 1.1444-.8722 1.0779-.2701 2.27-.1333 3.1854.5305z"/><path d="m14.7998 35.4222h5.5556v1.1556c-.704 0-1.408 0-2.1334 0v5.6889c-.4253 0-.8506 0-1.2889 0 0-1.8774 0-3.7547 0-5.6889-.704 0-1.408 0-2.1333 0 0-.3814 0-.7627 0-1.1556z"/></g></svg>