<svg xmlns="http://www.w3.org/2000/svg" xmlns:xlink="http://www.w3.org/1999/xlink" id="Layer_1" x="0px" y="0px" viewBox="0 0 178.7 50.1" style="enable-background:new 0 0 178.7 50.1;" xml:space="preserve"><style type="text/css">	.st0{clip-path:url(#SVGID_00000015347264262277422810000012541771607352288394_);}	.st1{fill:#FF0000;}	.st2{fill:#FFFFFF;}	.st3{opacity:5.000000e-02;fill:#1D1D1B;}</style><g>	<g>		<defs>			<circle id="SVGID_17_" cx="25.1" cy="24.8" r="22.6"></circle>		</defs>		<clipPath id="SVGID_00000170258839427820586050000008683161807769460624_">			<use xlink:href="#SVGID_17_" style="overflow:visible;"></use>		</clipPath>		<g style="clip-path:url(#SVGID_00000170258839427820586050000008683161807769460624_);">			<g>				<rect x="-8.8" y="2.2" class="st1" width="67.7" height="22.6"></rect>			</g>			<g>				<rect x="-8.8" y="24.8" class="st2" width="67.7" height="22.6"></rect>			</g>		</g>	</g>	<path class="st2" d="M25.1,0C11.4,0,0.3,11.1,0.3,24.8s11.1,24.8,24.8,24.8s24.8-11.1,24.8-24.8S38.8,0,25.1,0z M25.1,47.3  c-9.8,0-18.1-6.2-21.2-14.9c-0.9-2.4-1.3-5-1.3-7.7c0-2.7,0.5-5.3,1.3-7.7C7,8.5,15.3,2.3,25.1,2.3s18.1,6.2,21.2,14.9  c0.9,2.4,1.3,5,1.3,7.7c0,2.7-0.5,5.3-1.3,7.7C43.1,41.1,34.8,47.3,25.1,47.3z"></path>	<path class="st3" d="M25.1,2.3C12.6,2.3,2.5,12.3,2.5,24.8s10.1,22.5,22.5,22.5s22.5-10.1,22.5-22.5S37.5,2.3,25.1,2.3z M39.4,39.1  c-1.9,1.9-4,3.3-6.4,4.3c-2.5,1.1-5.2,1.6-7.9,1.6c-2.7,0-5.4-0.5-7.9-1.6c-2.4-1-4.6-2.5-6.4-4.3c-1.9-1.9-3.3-4-4.3-6.4  c-1.1-2.5-1.6-5.2-1.6-7.9c0-2.7,0.5-5.4,1.6-7.9c1-2.4,2.5-4.6,4.3-6.4c1.9-1.9,4-3.3,6.4-4.3c2.5-1.1,5.2-1.6,7.9-1.6  c2.7,0,5.4,0.5,7.9,1.6c2.4,1,4.6,2.5,6.4,4.3c1.9,1.9,3.3,4,4.3,6.4c1.1,2.5,1.6,5.2,1.6,7.9c0,2.7-0.5,5.4-1.6,7.9  C42.7,35.1,41.3,37.3,39.4,39.1z"></path></g><g>	<g>		<path d="M58.1,37.2h-3.3V21.3h3.3V37.2z"></path>		<path d="M63.3,25.4l0.1,1.4c0.8-1.1,2-1.6,3.4-1.6c1.3,0,2.2,0.4,2.8,1.1c0.6,0.7,0.9,1.8,0.9,3.3v7.6h-3.2v-7.6   c0-0.7-0.1-1.2-0.4-1.5c-0.3-0.3-0.8-0.5-1.5-0.5c-0.9,0-1.6,0.4-2,1.1v8.3h-3.2V25.4H63.3z"></path>		<path d="M71.9,31.2c0-1.8,0.4-3.3,1.2-4.4c0.8-1.1,2-1.6,3.4-1.6c1.2,0,2.1,0.4,2.9,1.3v-6h3.2v16.8h-2.9l-0.2-1.3   c-0.8,1-1.8,1.5-3,1.5c-1.4,0-2.5-0.5-3.3-1.6S71.9,33.2,71.9,31.2z M75,31.4c0,1.1,0.2,2,0.6,2.5s0.9,0.9,1.7,0.9   c1,0,1.7-0.4,2.1-1.2V29c-0.4-0.8-1.1-1.2-2-1.2C75.8,27.7,75,29,75,31.4z"></path>		<path d="M83.9,31.2c0-1.2,0.2-2.2,0.7-3.1c0.5-0.9,1.1-1.6,2-2.1s1.8-0.8,3-0.8c1.6,0,2.9,0.5,3.9,1.5c1,1,1.6,2.3,1.7,4l0,0.8   c0,1.8-0.5,3.3-1.5,4.4c-1,1.1-2.4,1.6-4.1,1.6c-1.7,0-3.1-0.5-4.1-1.6c-1-1.1-1.5-2.6-1.5-4.5V31.2z M87.1,31.4   c0,1.1,0.2,2,0.6,2.6c0.4,0.6,1,0.9,1.8,0.9c0.8,0,1.4-0.3,1.8-0.9s0.6-1.5,0.6-2.8c0-1.1-0.2-2-0.6-2.6s-1-0.9-1.8-0.9   c-0.8,0-1.4,0.3-1.8,0.9C87.3,29.2,87.1,30.1,87.1,31.4z"></path>		<path d="M99.4,25.4l0.1,1.4c0.8-1.1,2-1.6,3.4-1.6c1.3,0,2.2,0.4,2.8,1.1c0.6,0.7,0.9,1.8,0.9,3.3v7.6h-3.2v-7.6   c0-0.7-0.1-1.2-0.4-1.5c-0.3-0.3-0.8-0.5-1.5-0.5c-0.9,0-1.6,0.4-2,1.1v8.3h-3.2V25.4H99.4z"></path>		<path d="M113.9,37.4c-1.7,0-3.1-0.5-4.2-1.6s-1.6-2.5-1.6-4.2v-0.3c0-1.2,0.2-2.2,0.7-3.2c0.5-0.9,1.1-1.7,2-2.2   c0.8-0.5,1.8-0.8,2.9-0.8c1.6,0,2.9,0.5,3.8,1.5c0.9,1,1.4,2.5,1.4,4.3v1.3h-7.5c0.1,0.8,0.4,1.4,0.9,1.9c0.5,0.5,1.2,0.7,2,0.7   c1.2,0,2.2-0.4,2.9-1.3l1.6,1.7c-0.5,0.7-1.1,1.2-1.9,1.6S114.9,37.4,113.9,37.4z M113.6,27.7c-0.6,0-1.1,0.2-1.5,0.6   s-0.6,1-0.7,1.8h4.4v-0.3c0-0.7-0.2-1.2-0.6-1.6C114.8,27.9,114.2,27.7,113.6,27.7z"></path>		<path d="M126.4,33.9c0-0.4-0.2-0.7-0.6-0.9c-0.4-0.2-1-0.4-1.8-0.6c-2.8-0.6-4.2-1.8-4.2-3.6c0-1,0.4-1.9,1.3-2.6   c0.9-0.7,2-1.1,3.4-1.1c1.5,0,2.7,0.4,3.6,1.1c0.9,0.7,1.3,1.6,1.3,2.8h-3.2c0-0.5-0.1-0.8-0.4-1.1c-0.3-0.3-0.7-0.4-1.4-0.4   c-0.5,0-0.9,0.1-1.2,0.4s-0.4,0.5-0.4,0.9c0,0.3,0.2,0.6,0.5,0.8s0.9,0.4,1.7,0.6s1.4,0.3,2,0.5c1.7,0.6,2.5,1.7,2.5,3.2   c0,1.1-0.5,2-1.4,2.6c-0.9,0.7-2.1,1-3.6,1c-1,0-1.9-0.2-2.6-0.5c-0.8-0.4-1.4-0.8-1.8-1.5c-0.4-0.6-0.7-1.3-0.7-2h3   c0,0.6,0.2,1,0.6,1.3c0.4,0.3,0.9,0.4,1.6,0.4c0.6,0,1.1-0.1,1.4-0.3S126.4,34.3,126.4,33.9z"></path>		<path d="M130.9,22.3c0-0.5,0.2-0.9,0.5-1.2c0.3-0.3,0.7-0.5,1.3-0.5c0.5,0,1,0.2,1.3,0.5c0.3,0.3,0.5,0.7,0.5,1.2   c0,0.5-0.2,0.9-0.5,1.2c-0.3,0.3-0.8,0.5-1.3,0.5c-0.5,0-1-0.2-1.3-0.5C131.1,23.2,130.9,22.8,130.9,22.3z M134.3,37.2h-3.2V25.4   h3.2V37.2z"></path>		<path d="M143.2,37.2c-0.1-0.3-0.3-0.6-0.3-1.1c-0.8,0.9-1.8,1.3-3,1.3c-1.2,0-2.1-0.3-2.9-1c-0.8-0.7-1.1-1.5-1.1-2.5   c0-1.3,0.5-2.2,1.4-2.9c0.9-0.7,2.3-1,4-1h1.5v-0.7c0-0.5-0.1-1-0.4-1.3c-0.3-0.3-0.7-0.5-1.3-0.5c-0.5,0-0.9,0.1-1.3,0.4   s-0.5,0.6-0.5,1h-3.2c0-0.7,0.2-1.3,0.6-1.9c0.4-0.6,1-1,1.8-1.4c0.8-0.3,1.6-0.5,2.6-0.5c1.5,0,2.6,0.4,3.5,1.1   c0.9,0.7,1.3,1.8,1.3,3.1v5.1c0,1.1,0.2,2,0.5,2.5v0.2H143.2z M140.6,35c0.5,0,0.9-0.1,1.3-0.3c0.4-0.2,0.7-0.5,0.9-0.8v-2h-1.2   c-1.6,0-2.4,0.5-2.5,1.6l0,0.2c0,0.4,0.1,0.7,0.4,1C139.7,34.9,140.1,35,140.6,35z"></path>	</g>	<g>		<path d="M57.9,4.8l4,9.9l4-9.9h2.1v12.1h-1.6v-4.7l0.1-5.1l-4,9.8h-1.2l-4-9.8l0.2,5.1v4.7h-1.6V4.8H57.9z"></path>		<path d="M75.5,16.9c-0.1-0.2-0.2-0.5-0.2-0.9c-0.7,0.7-1.6,1.1-2.6,1.1c-0.9,0-1.6-0.3-2.2-0.8c-0.6-0.5-0.9-1.1-0.9-1.9   c0-0.9,0.4-1.7,1.1-2.2c0.7-0.5,1.7-0.8,3-0.8h1.5v-0.7c0-0.5-0.2-1-0.5-1.3C74.5,9.1,74,9,73.4,9c-0.5,0-1,0.1-1.4,0.4   c-0.4,0.3-0.6,0.6-0.6,1h-1.5c0-0.4,0.2-0.9,0.5-1.3c0.3-0.4,0.8-0.7,1.3-1s1.1-0.4,1.8-0.4c1,0,1.8,0.3,2.4,0.8s0.9,1.2,0.9,2.1   v4.1c0,0.8,0.1,1.5,0.3,2v0.1H75.5z M73,15.7c0.5,0,0.9-0.1,1.4-0.4c0.4-0.2,0.7-0.6,0.9-1v-1.8h-1.2c-1.9,0-2.8,0.6-2.8,1.7   c0,0.5,0.2,0.9,0.5,1.1C72.1,15.6,72.5,15.7,73,15.7z"></path>		<path d="M83.2,9.3c-0.2,0-0.5-0.1-0.8-0.1c-1,0-1.7,0.4-2.1,1.3v6.4h-1.5v-9h1.5l0,1c0.5-0.8,1.2-1.2,2.1-1.2c0.3,0,0.5,0,0.7,0.1   V9.3z"></path>		<path d="M86.7,12.7l-1,1v3.2h-1.5V4.1h1.5v7.7l0.8-1l2.8-3h1.9l-3.5,3.8l3.9,5.2h-1.8L86.7,12.7z"></path>		<path d="M95.9,17c-1.2,0-2.2-0.4-3-1.2c-0.8-0.8-1.1-1.9-1.1-3.2v-0.3c0-0.9,0.2-1.7,0.5-2.4c0.3-0.7,0.8-1.2,1.4-1.6   c0.6-0.4,1.3-0.6,2-0.6c1.2,0,2.1,0.4,2.7,1.2c0.6,0.8,1,1.9,1,3.3v0.6h-6.1c0,0.9,0.3,1.6,0.8,2.1s1.1,0.8,1.9,0.8   c0.5,0,1-0.1,1.4-0.3c0.4-0.2,0.7-0.5,1-0.9l0.9,0.7C98.5,16.5,97.4,17,95.9,17z M95.7,9c-0.6,0-1.1,0.2-1.6,0.7   c-0.4,0.5-0.7,1.1-0.8,1.9h4.5v-0.1c0-0.8-0.3-1.4-0.6-1.8S96.4,9,95.7,9z"></path>		<path d="M102.9,5.7v2.2h1.7v1.2h-1.7v5.6c0,0.4,0.1,0.6,0.2,0.8c0.1,0.2,0.4,0.3,0.8,0.3c0.2,0,0.4,0,0.7-0.1v1.2   c-0.4,0.1-0.8,0.2-1.2,0.2c-0.7,0-1.2-0.2-1.6-0.6c-0.3-0.4-0.5-1-0.5-1.8V9.1h-1.6V7.9h1.6V5.7H102.9z"></path>		<path d="M114.4,12h-2.8v4.9h-1.6V4.8h4c1.4,0,2.4,0.3,3.1,0.9c0.7,0.6,1.1,1.5,1.1,2.7c0,0.8-0.2,1.4-0.6,2c-0.4,0.6-1,1-1.7,1.3   l2.8,5.1v0.1H117L114.4,12z M111.5,10.7h2.5c0.8,0,1.4-0.2,1.9-0.6c0.5-0.4,0.7-1,0.7-1.6c0-0.7-0.2-1.3-0.7-1.7s-1.1-0.6-1.9-0.6   h-2.4V10.7z"></path>		<path d="M123.5,17c-1.2,0-2.2-0.4-3-1.2c-0.8-0.8-1.1-1.9-1.1-3.2v-0.3c0-0.9,0.2-1.7,0.5-2.4c0.3-0.7,0.8-1.2,1.4-1.6   c0.6-0.4,1.3-0.6,2-0.6c1.2,0,2.1,0.4,2.7,1.2c0.6,0.8,1,1.9,1,3.3v0.6h-6.1c0,0.9,0.3,1.6,0.8,2.1s1.1,0.8,1.9,0.8   c0.5,0,1-0.1,1.4-0.3c0.4-0.2,0.7-0.5,1-0.9l0.9,0.7C126.1,16.5,125,17,123.5,17z M123.3,9c-0.6,0-1.1,0.2-1.6,0.7   c-0.4,0.5-0.7,1.1-0.8,1.9h4.5v-0.1c0-0.8-0.3-1.4-0.6-1.8S123.9,9,123.3,9z"></path>		<path d="M133.6,14.5c0-0.4-0.2-0.7-0.5-1c-0.3-0.2-0.9-0.4-1.6-0.6s-1.4-0.4-1.9-0.6c-0.5-0.2-0.8-0.5-1-0.8   c-0.2-0.3-0.3-0.7-0.3-1.1c0-0.7,0.3-1.4,0.9-1.9c0.6-0.5,1.4-0.8,2.4-0.8c1,0,1.8,0.3,2.5,0.8c0.6,0.5,1,1.2,1,2h-1.5   c0-0.4-0.2-0.8-0.5-1.1c-0.4-0.3-0.8-0.5-1.3-0.5c-0.6,0-1,0.1-1.3,0.4c-0.3,0.2-0.5,0.6-0.5,1c0,0.4,0.1,0.7,0.4,0.8   c0.3,0.2,0.8,0.4,1.6,0.5c0.8,0.2,1.4,0.4,1.9,0.6c0.5,0.2,0.8,0.5,1.1,0.9c0.2,0.3,0.3,0.7,0.3,1.2c0,0.8-0.3,1.4-1,1.9   c-0.6,0.5-1.5,0.7-2.5,0.7c-0.7,0-1.4-0.1-1.9-0.4c-0.6-0.3-1-0.6-1.3-1.1c-0.3-0.5-0.5-1-0.5-1.5h1.5c0,0.5,0.2,0.9,0.6,1.2   s0.9,0.5,1.5,0.5c0.6,0,1-0.1,1.4-0.4S133.6,14.9,133.6,14.5z"></path>		<path d="M140.4,17c-1.2,0-2.2-0.4-3-1.2c-0.8-0.8-1.1-1.9-1.1-3.2v-0.3c0-0.9,0.2-1.7,0.5-2.4c0.3-0.7,0.8-1.2,1.4-1.6   c0.6-0.4,1.3-0.6,2-0.6c1.2,0,2.1,0.4,2.7,1.2c0.6,0.8,1,1.9,1,3.3v0.6h-6.1c0,0.9,0.3,1.6,0.8,2.1s1.1,0.8,1.9,0.8   c0.5,0,1-0.1,1.4-0.3c0.4-0.2,0.7-0.5,1-0.9l0.9,0.7C143,16.5,141.9,17,140.4,17z M140.2,9c-0.6,0-1.1,0.2-1.6,0.7   c-0.4,0.5-0.7,1.1-0.8,1.9h4.5v-0.1c0-0.8-0.3-1.4-0.6-1.8S140.8,9,140.2,9z"></path>		<path d="M150.8,16.9c-0.1-0.2-0.2-0.5-0.2-0.9c-0.7,0.7-1.6,1.1-2.6,1.1c-0.9,0-1.6-0.3-2.2-0.8c-0.6-0.5-0.9-1.1-0.9-1.9   c0-0.9,0.4-1.7,1.1-2.2c0.7-0.5,1.7-0.8,3-0.8h1.5v-0.7c0-0.5-0.2-1-0.5-1.3c-0.3-0.3-0.8-0.5-1.4-0.5c-0.5,0-1,0.1-1.4,0.4   c-0.4,0.3-0.6,0.6-0.6,1h-1.5c0-0.4,0.2-0.9,0.5-1.3c0.3-0.4,0.8-0.7,1.3-1s1.1-0.4,1.8-0.4c1,0,1.8,0.3,2.4,0.8s0.9,1.2,0.9,2.1   v4.1c0,0.8,0.1,1.5,0.3,2v0.1H150.8z M148.3,15.7c0.5,0,0.9-0.1,1.4-0.4c0.4-0.2,0.7-0.6,0.9-1v-1.8h-1.2c-1.9,0-2.8,0.6-2.8,1.7   c0,0.5,0.2,0.9,0.5,1.1C147.3,15.6,147.7,15.7,148.3,15.7z"></path>		<path d="M158.4,9.3c-0.2,0-0.5-0.1-0.8-0.1c-1,0-1.7,0.4-2.1,1.3v6.4h-1.5v-9h1.5l0,1c0.5-0.8,1.2-1.2,2.1-1.2   c0.3,0,0.5,0,0.7,0.1V9.3z"></path>		<path d="M162.9,15.8c0.5,0,1-0.2,1.4-0.5s0.6-0.7,0.7-1.2h1.5c0,0.5-0.2,1-0.5,1.5c-0.3,0.5-0.8,0.8-1.3,1.1s-1.1,0.4-1.7,0.4   c-1.2,0-2.2-0.4-2.9-1.2c-0.7-0.8-1.1-1.9-1.1-3.4v-0.3c0-0.9,0.2-1.7,0.5-2.3c0.3-0.7,0.8-1.2,1.4-1.6c0.6-0.4,1.3-0.6,2.1-0.6   c1,0,1.8,0.3,2.5,0.9c0.7,0.6,1,1.4,1.1,2.4H165c0-0.6-0.3-1.1-0.7-1.4c-0.4-0.4-0.9-0.6-1.5-0.6c-0.8,0-1.4,0.3-1.8,0.8   c-0.4,0.6-0.6,1.4-0.6,2.4v0.3c0,1,0.2,1.8,0.6,2.4C161.5,15.5,162.1,15.8,162.9,15.8z"></path>		<path d="M169.3,9c0.7-0.8,1.6-1.3,2.7-1.3c1.9,0,2.9,1.1,2.9,3.2v5.9h-1.5v-5.9c0-0.6-0.2-1.1-0.4-1.4c-0.3-0.3-0.7-0.5-1.4-0.5   c-0.5,0-0.9,0.1-1.3,0.4c-0.4,0.3-0.7,0.6-0.9,1v6.4h-1.5V4.1h1.5V9z"></path>	</g>	<g>		<path d="M54.9,45.6v-4.5h1.6c0.5,0,1,0.1,1.2,0.3s0.4,0.5,0.4,0.9c0,0.2-0.1,0.4-0.2,0.6c-0.1,0.2-0.3,0.3-0.5,0.4   c0.2,0.1,0.4,0.2,0.5,0.4c0.1,0.2,0.2,0.4,0.2,0.6c0,0.4-0.1,0.8-0.4,1s-0.7,0.3-1.2,0.3H54.9z M55.9,43h0.7   c0.5,0,0.7-0.2,0.7-0.6c0-0.2-0.1-0.4-0.2-0.4c-0.1-0.1-0.3-0.1-0.6-0.1h-0.7V43z M55.9,43.7v1.2h0.8c0.2,0,0.4-0.1,0.5-0.2   c0.1-0.1,0.2-0.2,0.2-0.4c0-0.4-0.2-0.6-0.6-0.6H55.9z"></path>		<path d="M61.9,43.1l0.9-2h1L62.3,44v1.6h-0.9V44l-1.5-2.9h1L61.9,43.1z"></path>		<path d="M71.3,43.7h-1.8v1.2h2.1v0.7h-3v-4.5h3v0.8h-2.1v1.1h1.8V43.7z"></path>		<path d="M77.1,41.1v3c0,0.5-0.2,0.9-0.5,1.2c-0.3,0.3-0.7,0.4-1.3,0.4c-0.5,0-0.9-0.1-1.3-0.4c-0.3-0.3-0.5-0.7-0.5-1.2v-3h0.9v3   c0,0.3,0.1,0.5,0.2,0.6c0.1,0.1,0.3,0.2,0.6,0.2c0.5,0,0.8-0.3,0.8-0.8v-3H77.1z"></path>		<path d="M81,44h-0.7v1.7h-0.9v-4.5H81c0.5,0,0.9,0.1,1.2,0.4s0.4,0.6,0.4,1c0,0.3-0.1,0.6-0.2,0.8c-0.1,0.2-0.3,0.4-0.6,0.5l1,1.8   v0h-1L81,44z M80.3,43.2H81c0.2,0,0.4-0.1,0.5-0.2s0.2-0.3,0.2-0.5c0-0.2-0.1-0.4-0.2-0.5c-0.1-0.1-0.3-0.2-0.6-0.2h-0.7V43.2z"></path>		<path d="M88.6,43.5c0,0.4-0.1,0.8-0.2,1.2c-0.2,0.3-0.4,0.6-0.7,0.8c-0.3,0.2-0.6,0.3-1,0.3c-0.4,0-0.7-0.1-1-0.3   c-0.3-0.2-0.5-0.4-0.7-0.8s-0.2-0.7-0.2-1.2v-0.2c0-0.4,0.1-0.8,0.2-1.2c0.2-0.3,0.4-0.6,0.7-0.8c0.3-0.2,0.6-0.3,1-0.3   c0.4,0,0.7,0.1,1,0.3c0.3,0.2,0.5,0.4,0.7,0.8s0.2,0.7,0.2,1.2V43.5z M87.7,43.3c0-0.5-0.1-0.8-0.3-1.1s-0.4-0.4-0.7-0.4   c-0.3,0-0.6,0.1-0.7,0.4c-0.2,0.2-0.3,0.6-0.3,1.1v0.2c0,0.5,0.1,0.8,0.3,1.1s0.4,0.4,0.7,0.4c0.3,0,0.6-0.1,0.7-0.4   c0.2-0.2,0.3-0.6,0.3-1.1V43.3z"></path>		<path d="M94.4,45.1c-0.2,0.2-0.4,0.4-0.7,0.5s-0.6,0.2-1,0.2c-0.4,0-0.7-0.1-1-0.3c-0.3-0.2-0.5-0.4-0.7-0.7s-0.2-0.7-0.2-1.1   v-0.3c0-0.5,0.1-0.8,0.2-1.2c0.2-0.3,0.4-0.6,0.7-0.8c0.3-0.2,0.6-0.3,1-0.3c0.5,0,1,0.1,1.3,0.4c0.3,0.3,0.5,0.6,0.5,1.1h-0.9   c0-0.3-0.1-0.4-0.3-0.6c-0.1-0.1-0.3-0.2-0.6-0.2c-0.3,0-0.6,0.1-0.7,0.4s-0.2,0.6-0.3,1.1v0.3c0,0.5,0.1,0.8,0.3,1.1   c0.2,0.2,0.4,0.4,0.8,0.4c0.4,0,0.6-0.1,0.7-0.2v-0.8h-0.8v-0.7h1.8V45.1z"></path>		<path d="M98.3,44h-0.7v1.7h-0.9v-4.5h1.7c0.5,0,0.9,0.1,1.2,0.4s0.4,0.6,0.4,1c0,0.3-0.1,0.6-0.2,0.8c-0.1,0.2-0.3,0.4-0.6,0.5   l1,1.8v0h-1L98.3,44z M97.6,43.2h0.8c0.2,0,0.4-0.1,0.5-0.2s0.2-0.3,0.2-0.5c0-0.2-0.1-0.4-0.2-0.5c-0.1-0.1-0.3-0.2-0.6-0.2h-0.7   V43.2z"></path>		<path d="M105.9,43.5c0,0.4-0.1,0.8-0.2,1.2c-0.2,0.3-0.4,0.6-0.7,0.8c-0.3,0.2-0.6,0.3-1,0.3c-0.4,0-0.7-0.1-1-0.3   c-0.3-0.2-0.5-0.4-0.7-0.8s-0.2-0.7-0.2-1.2v-0.2c0-0.4,0.1-0.8,0.2-1.2c0.2-0.3,0.4-0.6,0.7-0.8c0.3-0.2,0.6-0.3,1-0.3   c0.4,0,0.7,0.1,1,0.3c0.3,0.2,0.5,0.4,0.7,0.8s0.2,0.7,0.2,1.2V43.5z M105,43.3c0-0.5-0.1-0.8-0.3-1.1s-0.4-0.4-0.7-0.4   c-0.3,0-0.6,0.1-0.7,0.4c-0.2,0.2-0.3,0.6-0.3,1.1v0.2c0,0.5,0.1,0.8,0.3,1.1s0.4,0.4,0.7,0.4c0.3,0,0.6-0.1,0.7-0.4   c0.2-0.2,0.3-0.6,0.3-1.1V43.3z"></path>		<path d="M111.5,41.1v3c0,0.5-0.2,0.9-0.5,1.2c-0.3,0.3-0.7,0.4-1.3,0.4c-0.5,0-0.9-0.1-1.3-0.4c-0.3-0.3-0.5-0.7-0.5-1.2v-3h0.9v3   c0,0.3,0.1,0.5,0.2,0.6c0.1,0.1,0.3,0.2,0.6,0.2c0.5,0,0.8-0.3,0.8-0.8v-3H111.5z"></path>		<path d="M114.7,44v1.6h-0.9v-4.5h1.8c0.3,0,0.6,0.1,0.9,0.2c0.3,0.1,0.5,0.3,0.6,0.5c0.1,0.2,0.2,0.5,0.2,0.8c0,0.4-0.2,0.8-0.5,1   c-0.3,0.3-0.7,0.4-1.3,0.4H114.7z M114.7,43.3h0.8c0.2,0,0.4-0.1,0.6-0.2s0.2-0.3,0.2-0.5c0-0.2-0.1-0.4-0.2-0.5   c-0.1-0.1-0.3-0.2-0.5-0.2h-0.9V43.3z"></path>		<path d="M125.8,44.1c0,0.5-0.2,0.9-0.5,1.1s-0.8,0.4-1.3,0.4c-0.6,0-1-0.2-1.4-0.6c-0.3-0.4-0.5-0.9-0.5-1.6v-0.3   c0-0.4,0.1-0.8,0.2-1.1c0.2-0.3,0.4-0.6,0.7-0.8c0.3-0.2,0.6-0.3,1-0.3c0.5,0,0.9,0.1,1.3,0.4s0.5,0.7,0.6,1.2h-0.9   c0-0.3-0.1-0.5-0.2-0.6c-0.1-0.1-0.4-0.2-0.6-0.2c-0.3,0-0.5,0.1-0.7,0.3s-0.2,0.6-0.2,1v0.3c0,0.5,0.1,0.8,0.2,1.1   c0.1,0.2,0.4,0.3,0.7,0.3c0.3,0,0.5-0.1,0.6-0.2c0.1-0.1,0.2-0.3,0.2-0.6H125.8z"></path>		<path d="M131.6,43.5c0,0.4-0.1,0.8-0.2,1.2c-0.2,0.3-0.4,0.6-0.7,0.8c-0.3,0.2-0.6,0.3-1,0.3c-0.4,0-0.7-0.1-1-0.3   c-0.3-0.2-0.5-0.4-0.7-0.8c-0.2-0.3-0.2-0.7-0.2-1.2v-0.2c0-0.4,0.1-0.8,0.2-1.2c0.2-0.3,0.4-0.6,0.7-0.8c0.3-0.2,0.6-0.3,1-0.3   c0.4,0,0.7,0.1,1,0.3c0.3,0.2,0.5,0.4,0.7,0.8s0.2,0.7,0.2,1.2V43.5z M130.7,43.3c0-0.5-0.1-0.8-0.3-1.1s-0.4-0.4-0.7-0.4   c-0.3,0-0.6,0.1-0.7,0.4c-0.2,0.2-0.3,0.6-0.3,1.1v0.2c0,0.5,0.1,0.8,0.3,1.1s0.4,0.4,0.7,0.4c0.3,0,0.6-0.1,0.7-0.4   c0.2-0.2,0.3-0.6,0.3-1.1V43.3z"></path>		<path d="M137.5,45.6h-0.9l-1.8-3v3h-0.9v-4.5h0.9l1.8,3v-3h0.9V45.6z"></path>		<path d="M142.1,44.4c0-0.2-0.1-0.3-0.2-0.4c-0.1-0.1-0.3-0.2-0.7-0.3s-0.6-0.2-0.8-0.3c-0.5-0.3-0.8-0.7-0.8-1.1   c0-0.2,0.1-0.5,0.2-0.7c0.1-0.2,0.3-0.3,0.6-0.4c0.3-0.1,0.5-0.2,0.9-0.2c0.3,0,0.6,0.1,0.9,0.2c0.3,0.1,0.4,0.3,0.6,0.5   c0.1,0.2,0.2,0.5,0.2,0.7h-0.9c0-0.2-0.1-0.4-0.2-0.5c-0.1-0.1-0.3-0.2-0.5-0.2c-0.2,0-0.4,0-0.5,0.1s-0.2,0.2-0.2,0.4   c0,0.1,0.1,0.3,0.2,0.4s0.4,0.2,0.7,0.3c0.5,0.2,0.9,0.4,1.2,0.6c0.2,0.2,0.4,0.5,0.4,0.9c0,0.4-0.1,0.7-0.4,0.9   c-0.3,0.2-0.7,0.3-1.2,0.3c-0.3,0-0.7-0.1-1-0.2c-0.3-0.1-0.5-0.3-0.7-0.5c-0.2-0.2-0.2-0.5-0.2-0.8h0.9c0,0.5,0.3,0.7,0.9,0.7   c0.2,0,0.4,0,0.5-0.1C142.1,44.7,142.1,44.6,142.1,44.4z"></path>		<path d="M148.6,41.1v3c0,0.5-0.2,0.9-0.5,1.2c-0.3,0.3-0.7,0.4-1.3,0.4c-0.5,0-0.9-0.1-1.3-0.4c-0.3-0.3-0.5-0.7-0.5-1.2v-3h0.9v3   c0,0.3,0.1,0.5,0.2,0.6c0.1,0.1,0.3,0.2,0.6,0.2c0.5,0,0.8-0.3,0.8-0.8v-3H148.6z"></path>		<path d="M151.8,44.9h2v0.7h-2.9v-4.5h0.9V44.9z"></path>		<path d="M158.6,41.9h-1.4v3.8h-0.9v-3.8h-1.4v-0.8h3.7V41.9z"></path>		<path d="M161.6,45.6h-0.9v-4.5h0.9V45.6z"></path>		<path d="M167.6,45.6h-0.9l-1.8-3v3H164v-4.5h0.9l1.8,3v-3h0.9V45.6z"></path>		<path d="M173.5,45.1c-0.2,0.2-0.4,0.4-0.7,0.5s-0.6,0.2-1,0.2c-0.4,0-0.7-0.1-1-0.3c-0.3-0.2-0.5-0.4-0.7-0.7s-0.2-0.7-0.2-1.1   v-0.3c0-0.5,0.1-0.8,0.2-1.2c0.2-0.3,0.4-0.6,0.7-0.8c0.3-0.2,0.6-0.3,1-0.3c0.5,0,1,0.1,1.3,0.4c0.3,0.3,0.5,0.6,0.5,1.1h-0.9   c0-0.3-0.1-0.4-0.3-0.6c-0.1-0.1-0.3-0.2-0.6-0.2c-0.3,0-0.6,0.1-0.7,0.4s-0.2,0.6-0.3,1.1v0.3c0,0.5,0.1,0.8,0.3,1.1   c0.2,0.2,0.4,0.4,0.8,0.4c0.4,0,0.6-0.1,0.7-0.2v-0.8h-0.8v-0.7h1.8V45.1z"></path>	</g></g></svg>